<?xml version="1.0" encoding="UTF-8" standalone="no"?><!DOCTYPE svg PUBLIC "-//W3C//DTD SVG 1.1//EN" "http://www.w3.org/Graphics/SVG/1.1/DTD/svg11.dtd"><svg width="100%" height="100%" viewBox="0 0 2790 2790" version="1.1" xmlns="http://www.w3.org/2000/svg" xmlns:xlink="http://www.w3.org/1999/xlink" xml:space="preserve" xmlns:serif="http://www.serif.com/" style="fill-rule:evenodd;clip-rule:evenodd;stroke-linejoin:round;stroke-miterlimit:2;"><g id="crossinguard-logo" serif:id="crossinguard logo"><g id="background"><path id="background1" serif:id="background" d="M2789.46,1394.73c-0,-769.772 -624.958,-1394.73 -1394.73,-1394.73c-769.772,0 -1394.73,624.957 -1394.73,1394.73c0,769.772 624.957,1394.73 1394.73,1394.73c769.772,-0 1394.73,-624.958 1394.73,-1394.73Z" style="fill:#22272e;"/><path id="sun" d="M1240.56,101.029c-623.348,84.847 -1147.58,607.299 -1147.58,1253.85c-0,144.466 6.84,283.571 52.054,422.309c11.899,36.53 21.878,104.651 54.892,128.272c36.676,26.248 125.022,9.438 168.474,9.438l1615.79,0c183.934,0 396.402,29.902 577.417,-1.357c63.254,-10.925 85.371,-157.016 98.508,-209.796c58.04,-233.225 45.591,-488.493 -30.223,-716.09c-190.865,-573.038 -781.236,-969.394 -1389.34,-886.622m-1028.23,1841.41c11.246,39.055 30.47,96.773 67.285,119.092c32.582,19.756 88.896,9.437 125.508,9.437l1707.6,-0c163.48,-0 403.6,63.907 459.033,-128.529l-2359.43,-0m100.987,183.613c86.344,151.554 286.703,100.987 440.671,100.987l1248.57,0c158.165,0 379.639,54.46 468.213,-100.987l-2157.45,0m156.071,183.613c80.799,114.299 259.996,73.445 385.587,73.445l1055.78,0c128.538,0 321.396,43.342 403.949,-73.445l-1845.31,0m229.516,183.613l0,9.18c96.416,58.141 221.263,36.723 330.504,36.723l716.09,0c109.232,0 244.986,24.889 339.684,-36.723c-107.358,-45.049 -296.269,-9.18 -413.129,-9.18l-973.149,0m449.85,174.43l-0,9.181c160.762,29.956 325.812,29.956 486.574,0l-156.071,-9.181l-330.503,0" style="fill:url(#_Linear1);fill-rule:nonzero;"/><path id="sun1" serif:id="sun" d="M1240.56,101.029c-623.348,84.847 -1147.58,607.299 -1147.58,1253.85c-0,144.466 6.84,283.571 52.054,422.309c11.899,36.53 21.878,104.651 54.892,128.272c36.676,26.248 125.022,9.438 168.474,9.438l1615.79,0c183.934,0 396.402,29.902 577.417,-1.357c63.254,-10.925 85.371,-157.016 98.508,-209.796c58.04,-233.225 45.591,-488.493 -30.223,-716.09c-190.865,-573.038 -781.236,-969.394 -1389.34,-886.622m-1028.23,1841.41c11.246,39.055 30.47,96.773 67.285,119.092c32.582,19.756 88.896,9.437 125.508,9.437l1707.6,-0c163.48,-0 403.6,63.907 459.033,-128.529l-2359.43,-0m100.987,183.613c86.344,151.554 286.703,100.987 440.671,100.987l1248.57,0c158.165,0 379.639,54.46 468.213,-100.987l-2157.45,0m156.071,183.613c80.799,114.299 259.996,73.445 385.587,73.445l1055.78,0c128.538,0 321.396,43.342 403.949,-73.445l-1845.31,0m229.516,183.613l0,9.18c96.416,58.141 221.263,36.723 330.504,36.723l716.09,0c109.232,0 244.986,24.889 339.684,-36.723c-107.358,-45.049 -296.269,-9.18 -413.129,-9.18l-973.149,0m449.85,174.43l-0,9.181c160.762,29.956 325.812,29.956 486.574,0l-156.071,-9.181l-330.503,0" style="fill:url(#_Linear2);fill-rule:nonzero;stroke:#363636;stroke-width:4.17px;"/></g><path id="crystal-blue" d="M1132.9,353.285l0,5.068l354.998,166.199l542.63,254.611l-147.066,-192.66l-226.183,-288.988l-91.282,-116.61l-42.799,-41.432l-106.3,52.332l-283.998,161.48Zm-10.145,20.279l20.285,801.058l258.638,-105.004l644.07,-265.102l-197.787,-95.628l-349.921,-164.257l-253.567,-119.66l-121.718,-51.407Zm116.641,2246l186.074,-415.738l391.355,-872.035l139.208,-309.271l89.715,-207.867l-258.645,104.314l-420.921,173.167l-162.285,67.329l-57.797,32.366l1.565,109.537l5.322,228.155l15.414,775.704l5.072,207.871l5.213,84.01l60.71,22.458Zm-431.063,-1733.94c56.009,433.593 170.505,861.781 243.837,1292.85c17.861,104.981 38.548,209.918 59.43,314.338c7.774,38.869 5.194,89.667 46.659,106.468l-25.161,-1024.13l-5.269,-268.712l-5.214,-121.656l-86.071,-86.209l-228.211,-212.944Zm-20.285,10.139c-44.604,137.035 -89.648,273.928 -135.239,410.67c-17.601,52.796 -58.528,126.65 -56.06,182.52c3.005,68.049 61.522,155.629 88.446,218.01c67.033,155.317 133.235,310.997 199.97,466.439c41.346,96.304 82.744,192.596 123.889,288.991c24.154,56.601 36.087,104.993 103.561,116.611l-74.099,-385.322l-155.111,-816.268l-62.899,-334.618l-32.458,-147.033Zm1227.27,25.354l-765.771,1703.51l223.14,25.348l87.581,-18.19l34.129,-108.558l77.945,-294.062l247.386,-937.947l70.998,-258.566l24.592,-111.539Zm-431.064,1708.58c40.721,-6.524 50.461,-42.65 67.195,-76.046l101.431,-202.799c102.39,-204.76 206.908,-408.642 309.348,-613.469c43.005,-86.063 93.57,-169.633 130.591,-258.572l-248.496,91.26l-86.975,38.782l-24.598,77.829l-55.175,207.867l-131.858,496.862l-61.463,238.286Zm552.779,-1014l-361.333,719.94l-135.665,278.851c37.532,-5.54 116.694,-22.837 141.646,-53.231c43.462,-53.097 62.782,-156.148 86.825,-220.551c58.773,-157.552 120.038,-314.18 179.37,-471.505c21.708,-57.527 43.159,-115.23 65.826,-172.381c9.286,-23.403 28.5,-56.04 23.331,-81.123Zm-1496.05,35.496c48.629,210.141 124.904,416.533 185.491,623.606c35.596,121.662 62.135,229.026 199.934,268.706c-69.803,-204.995 -171.378,-404.438 -257.216,-603.327c-38.176,-88.453 -67.809,-214.25 -128.209,-288.985Z" style="fill:#119da4;fill-rule:nonzero;"/><path d="M780.264,854.834c2.679,-2.443 5.708,-4.561 9.041,-6.272c15.629,-8.022 34.61,-5.38 47.454,6.605l228.211,212.944c0.359,0.335 0.713,0.677 1.06,1.025l33.508,33.562l-18.437,-728.079c-0.275,-10.871 3.705,-21.279 10.868,-29.133c2.26,-11.868 9.61,-22.323 20.336,-28.422l283.998,-161.48c0.718,-0.409 1.449,-0.796 2.191,-1.161l106.301,-52.332c15.783,-7.77 34.745,-4.791 47.384,7.445l42.799,41.432c1.372,1.328 2.651,2.749 3.829,4.253l91.283,116.612l226.184,288.989c0.104,0.133 0.206,0.266 0.308,0.399l147.066,192.66c4.123,5.401 6.751,11.552 7.891,17.908c10.232,8.063 16.257,20.606 15.857,33.975c-0.039,1.287 -0.137,2.563 -0.291,3.824c0.882,7.191 -0.105,14.636 -3.102,21.579l-31.082,72.016c3.877,8.119 5.152,17.526 3.083,26.912l-24.592,111.539c-0.152,0.692 -0.322,1.379 -0.51,2.062l-70.941,258.363l-64.392,244.138l31.783,-14.172c0.856,-0.381 1.724,-0.734 2.604,-1.057l248.496,-91.26c15.543,-5.708 32.99,-1.672 44.446,10.282c11.457,11.954 14.748,29.557 8.385,44.843c-15.908,38.216 -34.273,75.46 -53.471,112.335c0.009,0.043 0.018,0.086 0.027,0.13c3.378,16.39 1.453,34.853 -4.328,53.438c-5.629,18.093 -15.174,36.57 -21.082,51.46c-22.581,56.933 -43.947,114.417 -65.569,171.717c-59.315,157.279 -120.562,313.861 -179.319,471.366l-0.003,0.009c-25.411,68.07 -47.681,176.251 -93.618,232.371l-0.038,0.046c-10.793,13.148 -28.046,25.415 -49.179,35.216c-37.873,17.565 -89.49,28.502 -118.587,32.797c-4.855,0.717 -9.709,0.561 -14.365,-0.384c-11.241,7.509 -24.599,12.901 -40.908,15.514c-5.095,0.817 -10.214,0.67 -15.122,-0.357c-2.24,0.894 -4.574,1.6 -6.983,2.101l-87.581,18.19c-4.332,0.899 -8.78,1.104 -13.176,0.604l-223.14,-25.348c-6.847,-0.778 -13.289,-3.225 -18.823,-7.01c-0.36,-0.123 -0.719,-0.25 -1.078,-0.383l-53.556,-19.811c-9.278,3.078 -19.479,2.836 -28.772,-0.93c-11.074,-4.486 -20.38,-10.322 -28.214,-17.264c-2.933,0.125 -5.9,-0.058 -8.853,-0.567c-33.481,-5.765 -56.846,-18.019 -74.737,-35.125c-5.264,0.561 -10.672,0.122 -15.936,-1.393c-154.163,-44.392 -188.572,-160.936 -228.395,-297.045c-60.809,-207.831 -137.288,-415.002 -186.095,-625.913c-2.058,-8.894 -1.099,-17.903 2.309,-25.836c-6.809,-13.524 -13.454,-27.252 -19.438,-40.929c-15.621,-35.703 -26.728,-71.282 -28.13,-103.034c-1.19,-26.937 5.338,-57.461 15.739,-88.322c12.929,-38.362 31.871,-77.573 42.419,-109.214c45.56,-136.648 90.573,-273.447 135.146,-410.388c4.781,-14.688 17.157,-25.252 31.837,-28.04Zm1356.77,760.873l-361.333,719.94l-135.665,278.851c37.532,-5.54 116.694,-22.837 141.646,-53.231c43.462,-53.097 62.782,-156.148 86.825,-220.551c58.773,-157.552 120.038,-314.18 179.37,-471.505c21.708,-57.527 43.159,-115.23 65.826,-172.381c9.286,-23.403 28.5,-56.04 23.331,-81.123Zm-1348.98,-719.937c-44.604,137.035 -89.648,273.928 -135.239,410.67c-17.601,52.796 -58.528,126.65 -56.06,182.52c3.005,68.049 61.522,155.629 88.446,218.01c67.033,155.317 133.235,310.997 199.97,466.439c41.346,96.304 82.744,192.596 123.889,288.991c24.154,56.601 36.087,104.993 103.561,116.611l-74.099,-385.322l-155.111,-816.268l-62.899,-334.618l-32.458,-147.033Zm451.348,1723.8l186.074,-415.738l391.355,-872.035l139.208,-309.271l89.715,-207.867l-258.645,104.314l-420.921,173.167l-162.285,67.329l-57.797,32.366l1.565,109.537l5.322,228.155l15.414,775.704l5.072,207.871l5.213,84.01l60.71,22.458Zm-116.641,-2246l20.285,801.058l258.638,-105.004l644.07,-265.102l-197.787,-95.628l-349.921,-164.257l-253.567,-119.66l-121.718,-51.407Zm-314.422,512.067c56.009,433.593 170.505,861.781 243.837,1292.85c17.861,104.981 38.548,209.918 59.43,314.338c7.774,38.869 5.194,89.667 46.659,106.468l-25.161,-1024.13l-5.269,-268.712l-5.214,-121.656l-86.071,-86.209l-228.211,-212.944Zm775.918,1744.08c40.721,-6.524 50.461,-42.65 67.195,-76.046l101.431,-202.799c102.39,-204.76 206.908,-408.642 309.348,-613.469c43.005,-86.063 93.57,-169.633 130.591,-258.572l-248.496,91.26l-86.975,38.782l-24.598,77.829l-55.175,207.867l-131.858,496.862l-61.463,238.286Zm-943.275,-978.503c48.629,210.141 124.904,416.533 185.491,623.606c35.596,121.662 62.135,229.026 199.934,268.706c-69.803,-204.995 -171.378,-404.438 -257.216,-603.327c-38.176,-88.453 -67.809,-214.25 -128.209,-288.985Zm1374.34,-730.079l-765.771,1703.51l223.14,25.348l87.581,-18.19l34.129,-108.558l77.945,-294.062l247.386,-937.947l70.998,-258.566l24.592,-111.539Zm-882.415,-567.839l0,5.068l354.998,166.199l542.63,254.611l-147.066,-192.66l-226.183,-288.988l-91.282,-116.61l-42.799,-41.432l-106.3,52.332l-283.998,161.48Z" style="fill:#22272e;"/></g><defs><linearGradient id="_Linear1" x1="0" y1="0" x2="1" y2="0" gradientUnits="userSpaceOnUse" gradientTransform="matrix(2603.49,0,0,2609.25,92.982,1394.73)"><stop offset="0" style="stop-color:#f2f2f2;stop-opacity:1"/><stop offset="1" style="stop-color:#f2f2f2;stop-opacity:1"/></linearGradient><linearGradient id="_Linear2" x1="0" y1="0" x2="1" y2="0" gradientUnits="userSpaceOnUse" gradientTransform="matrix(1.65521e-13,2703.16,-2709.14,1.65887e-13,1396.6,-230.123)"><stop offset="0" style="stop-color:#f2f2f2;stop-opacity:0"/><stop offset="0.69" style="stop-color:#f2f2f2;stop-opacity:0"/><stop offset="1" style="stop-color:#bf4e30;stop-opacity:1"/></linearGradient></defs></svg>